<svg viewBox="0 0 4500 1344" class="h-14 w-auto fill-current" aria-hidden="true" xmlns="http://www.w3.org/2000/svg"><path id="Auswahl #2" fill="var(--primary)" d="M 226.00,1098.82 C 229.39,1091.84 241.18,1081.16 246.91,1075.00 246.91,1075.00 294.96,1026.00 294.96,1026.00 294.96,1026.00 313.00,1007.00 313.00,1007.00 313.00,1007.00 323.00,997.91 323.00,997.91 323.00,997.91 340.00,981.00 340.00,981.00 340.00,981.00 380.04,941.03 380.04,941.03 380.04,941.03 410.00,912.96 410.00,912.96 410.00,912.96 472.00,853.91 472.00,853.91 472.00,853.91 512.00,816.17 512.00,816.17 601.45,735.24 692.88,656.22 788.00,581.99 829.79,549.37 871.73,517.21 915.00,486.58 915.00,486.58 957.00,456.75 957.00,456.75 1011.13,420.52 1065.91,385.11 1123.00,353.69 1155.16,335.99 1187.41,318.09 1221.00,303.14 1221.00,303.14 1279.00,277.60 1279.00,277.60 1279.00,277.60 1333.00,258.00 1333.00,258.00 1333.00,258.00 1353.00,250.75 1353.00,250.75 1396.98,236.65 1452.16,224.32 1498.00,218.85 1518.28,216.42 1538.54,214.58 1558.96,214.55 1567.56,214.54 1588.86,212.17 1596.00,215.00 1566.92,222.33 1537.55,229.36 1509.00,238.67 1428.03,265.07 1349.85,300.21 1275.00,340.69 1275.00,340.69 1246.00,356.29 1246.00,356.29 1246.00,356.29 1160.00,407.94 1160.00,407.94 1059.97,470.01 966.21,541.51 875.00,615.74 875.00,615.74 811.00,668.30 811.00,668.30 811.00,668.30 774.00,700.72 774.00,700.72 774.00,700.72 752.00,719.28 752.00,719.28 752.00,719.28 742.00,728.83 742.00,728.83 742.00,728.83 702.00,764.17 702.00,764.17 702.00,764.17 678.00,786.91 678.00,786.91 678.00,786.91 653.00,809.09 653.00,809.09 653.00,809.09 641.00,820.91 641.00,820.91 641.00,820.91 592.00,867.04 592.00,867.04 592.00,867.04 535.00,923.09 535.00,923.09 535.00,923.09 479.00,979.00 479.00,979.00 473.63,984.37 446.39,1012.60 443.00,1016.00 437.07,1021.94 415.00,1045.00 415.00,1045.00 415.00,1045.00 412.00,1048.00 412.00,1048.00 409.89,1048.82 404.13,1055.86 402.00,1058.00 402.00,1058.00 375.04,1086.00 375.04,1086.00 369.18,1092.13 367.19,1097.83 358.00,1098.00 358.00,1098.00 345.00,1098.00 345.00,1098.00 345.00,1098.00 311.58,1098.64 311.58,1098.64 311.58,1098.64 284.00,1098.07 284.00,1098.07 284.00,1098.07 263.72,1098.82 263.72,1098.82 263.72,1098.82 226.00,1098.82 226.00,1098.82 Z"></path><path id="Auswahl #1" fill="var(--primary)" d="M 1684.00,310.00 C 1684.00,310.00 1706.00,309.00 1706.00,309.00 1706.00,309.00 1729.00,309.00 1729.00,309.00 1729.00,309.00 1741.00,309.91 1741.00,309.91 1763.53,311.46 1783.81,314.00 1806.00,318.45 1870.18,331.31 1936.57,364.35 1988.00,404.42 2010.19,421.71 2031.74,440.58 2051.91,460.17 2051.91,460.17 2059.04,467.91 2059.04,467.91 2059.04,467.91 2069.00,477.00 2069.00,477.00 2069.00,477.00 2090.88,500.49 2090.88,500.49 2090.88,500.49 2096.93,506.09 2096.93,506.09 2112.77,522.17 2144.41,558.96 2159.00,577.00 2165.22,584.70 2181.60,603.04 2185.00,611.00 2185.00,611.00 2104.00,611.00 2104.00,611.00 2102.02,611.00 2098.90,611.12 2097.09,610.40 2093.60,609.02 2086.36,598.45 2083.60,595.00 2083.60,595.00 2047.83,553.00 2047.83,553.00 2002.01,502.08 1944.45,446.93 1888.00,408.02 1844.51,378.06 1801.83,354.05 1753.00,333.86 1753.00,333.86 1710.00,319.00 1710.00,319.00 1702.95,316.95 1689.60,314.01 1684.00,310.00 Z"></path><path id="Auswahl" fill="var(--primary)" d="M 503.00,1098.00 C 507.29,1089.96 519.29,1078.29 525.72,1071.00 525.72,1071.00 574.84,1015.00 574.84,1015.00 574.84,1015.00 617.17,967.00 617.17,967.00 617.17,967.00 634.83,948.00 634.83,948.00 634.83,948.00 647.09,934.00 647.09,934.00 647.09,934.00 664.91,916.00 664.91,916.00 664.91,916.00 723.04,854.00 723.04,854.00 723.04,854.00 753.91,823.00 753.91,823.00 753.91,823.00 799.00,777.00 799.00,777.00 799.00,777.00 867.00,710.91 867.00,710.91 867.00,710.91 889.00,689.09 889.00,689.09 889.00,689.09 922.00,658.96 922.00,658.96 922.00,658.96 934.99,646.09 934.99,646.09 934.99,646.09 976.00,609.72 976.00,609.72 976.00,609.72 1026.00,566.57 1026.00,566.57 1026.00,566.57 1089.00,515.12 1089.00,515.12 1089.00,515.12 1131.00,481.88 1131.00,481.88 1131.00,481.88 1203.00,429.04 1203.00,429.04 1203.00,429.04 1242.00,403.00 1242.00,403.00 1327.58,345.94 1416.85,295.00 1514.00,260.31 1567.58,241.18 1588.81,234.90 1645.00,224.39 1659.29,221.71 1691.55,216.06 1705.00,216.00 1705.00,216.00 1724.00,215.00 1724.00,215.00 1724.00,215.00 1737.00,215.00 1737.00,215.00 1737.00,215.00 1752.00,214.00 1752.00,214.00 1752.00,214.00 1780.00,215.00 1780.00,215.00 1780.00,215.00 1800.00,216.00 1800.00,216.00 1816.12,216.08 1843.71,221.14 1860.00,224.40 1899.32,232.27 1928.94,240.57 1966.00,256.43 2050.25,292.47 2119.23,342.87 2187.00,403.83 2187.00,403.83 2209.00,423.09 2209.00,423.09 2240.65,452.58 2298.83,515.34 2326.42,549.00 2326.42,549.00 2359.00,589.00 2359.00,589.00 2363.49,594.65 2372.42,604.95 2375.00,611.00 2375.00,611.00 2293.00,611.00 2293.00,611.00 2281.40,610.98 2282.02,606.81 2273.73,597.00 2273.73,597.00 2244.56,562.00 2244.56,562.00 2244.56,562.00 2213.04,528.00 2213.04,528.00 2213.04,528.00 2204.96,519.00 2204.96,519.00 2177.57,490.37 2148.46,463.41 2118.00,438.08 2118.00,438.08 2078.00,407.85 2078.00,407.85 2016.39,362.92 1958.53,331.43 1885.00,310.29 1885.00,310.29 1845.00,300.00 1845.00,300.00 1826.81,296.30 1806.53,294.21 1788.00,292.91 1788.00,292.91 1765.00,291.00 1765.00,291.00 1765.00,291.00 1744.00,291.00 1744.00,291.00 1744.00,291.00 1732.00,291.91 1732.00,291.91 1732.00,291.91 1695.00,294.84 1695.00,294.84 1588.24,306.26 1486.79,349.96 1395.00,403.99 1288.43,466.72 1190.66,543.09 1099.00,625.83 1099.00,625.83 1083.00,639.17 1083.00,639.17 1083.00,639.17 1061.00,659.83 1061.00,659.83 1061.00,659.83 978.97,737.96 978.97,737.96 978.97,737.96 970.00,746.18 970.00,746.18 970.00,746.18 962.96,753.83 962.96,753.83 962.96,753.83 952.04,764.00 952.04,764.00 952.04,764.00 944.92,771.96 944.92,771.96 944.92,771.96 922.04,794.00 922.04,794.00 922.04,794.00 912.99,804.00 912.99,804.00 912.99,804.00 877.04,840.00 877.04,840.00 877.04,840.00 804.91,917.00 804.91,917.00 804.91,917.00 753.09,972.00 753.09,972.00 753.09,972.00 727.91,1000.00 727.91,1000.00 727.91,1000.00 708.17,1021.00 708.17,1021.00 708.17,1021.00 680.28,1052.00 680.28,1052.00 680.28,1052.00 656.92,1079.00 656.92,1079.00 652.84,1083.43 643.76,1095.29 639.00,1097.11 636.34,1098.13 632.83,1098.00 630.00,1098.00 630.00,1098.00 503.00,1098.00 503.00,1098.00 Z"></path><text x="1040" y="1100" font-size="630" font-family="var(--font-aeonik), sans-serif" style="letter-spacing:-0.02em" color="var(--foreground)"><tspan font-weight="bold">next</tspan><tspan>bridge</tspan></text></svg>